# xmcd
#
# Track frame offsets:
# 150
# 18304
# 36130
# 54295
# 67227
# 83841
# 102690
# 121965
# 142644
# 158509
# 183258
# 200407
# 231400
# 250136
# 269860
# 285727
# 305911
# 323487
#
# Disc length: 4518 seconds
#
#
# Revision: 0
# Processed by: cddbd v1.4PL0 Copyright (c) Steve Scherf et al.
# Submitted via: FreeRIP 2.00 
#
DISCID=0211a412
DTITLE=Presuntos Implicados - Seleccion Natural - Lo Mejor De
DYEAR=2002
DGENRE=Pop
TTITLE0=Como Hemos Cambiado (Version 02)
TTITLE1=Es Una Historia
TTITLE2=Todas Las Flores
TTITLE3=Mi Pequeño Tesoro
TTITLE4=La Mujer Que Mueve El Mundo
TTITLE5=Fallen (con Randy Crawford)
TTITLE6=Alma De Blues (Version 89)
TTITLE7=Llovio
TTITLE8=Esperare
TTITLE9=La Noche (Con Teo Cardalda)
TTITLE10=Me Das El Mar
TTITLE11=La Flor De La Mañana
TTITLE12=Mil Mariposas
TTITLE13=Eden
TTITLE14=Mi Unica Razon
TTITLE15=Cuando Quiero Sol
TTITLE16=Barbara Del Campo
TTITLE17=Luna
EXTD=doble cd con dvd incluido por 18 euros/dolares\ntienes que comprartelo!!!! es una ganga \nrecuerda que el mp3 sirve para difundir la \nmusica entre los que no tienen dinero para \nadquirirla si te gusta y puedes permitirtelo\ncompra este cd!
EXTT0=
EXTT1=
EXTT2=
EXTT3=
EXTT4=
EXTT5=
EXTT6=
EXTT7=
EXTT8=
EXTT9=
EXTT10=
EXTT11=
EXTT12=
EXTT13=
EXTT14=
EXTT15=
EXTT16=
EXTT17=
PLAYORDER=
